<svg xmlns="http://www.w3.org/2000/svg" xmlns:xlink="http://www.w3.org/1999/xlink"><symbol id="logo-desktop" viewBox="0 0 70 38">
<path fill-rule="evenodd" clip-rule="evenodd" d="M0.903517 31.125L14.6726 12.5429L18.4395 14.556L27.4026 0L32.9879 6.65881L35.0665 4.95532L43.1199 15.1755L48.8355 8.36191L64.8126 31.125L49.42 11.7689L47.0817 19.8984L49.225 26.3249L35.456 7.35558L35.3069 13.8279L43.1199 31.125L28.5064 4.33574L32.7282 18.8145L26.8181 4.72292L23.5706 14.0916L24.2198 7.97472L16.1013 30.0411L17.0753 20.75L13.6981 17.0338L0.903517 31.125Z" fill="#F9FBFD"/>
<path fill-rule="evenodd" clip-rule="evenodd" d="M69.4414 34.0314C47.641 16.428 13.7091 40.6289 0 31.2961C15.0723 44.5215 50.3019 22.1644 69.4414 34.0314Z" fill="#F9FBFD"/>
<path fill-rule="evenodd" clip-rule="evenodd" d="M70 35.4157C52.8956 24.5171 27.4568 39.6838 14.4189 36.1717C28.5467 43.0283 54.8482 27.8361 70 35.4157Z" fill="#F9FBFD"/>
</symbol><symbol id="logo-menu-mobile" viewBox="0 0 42 22">
<path fill-rule="evenodd" clip-rule="evenodd" d="M0.54211 18.0197L8.80358 7.26166L11.0637 8.42713L16.4415 0L19.7928 3.8551L21.0399 2.86887L25.872 8.78584L29.3013 4.84111L38.8875 18.0197L29.652 6.81358L28.249 11.5202L29.535 15.2407L21.2736 4.25849L21.1842 8.00563L25.872 18.0197L17.1038 2.51017L19.6369 10.8926L16.0909 2.73432L14.1424 8.15829L14.5319 4.61695L9.66076 17.3922L10.2452 12.0132L8.21887 9.86169L0.54211 18.0197Z" fill="#011C40"/>
<path fill-rule="evenodd" clip-rule="evenodd" d="M41.6649 19.7024C28.5846 9.51096 8.22544 23.522 0 18.1188C9.04339 25.7756 30.1812 12.832 41.6649 19.7024Z" fill="#011C40"/>
<path fill-rule="evenodd" clip-rule="evenodd" d="M42 20.5038C31.7374 14.1941 16.4741 22.9749 8.65134 20.9415C17.128 24.9111 32.9089 16.1156 42 20.5038Z" fill="#011C40"/>
</symbol></svg>