<svg width="21" height="26" viewBox="0 0 21 26" fill="none" xmlns="http://www.w3.org/2000/svg">
<path d="M3.42649 13.3219L10.2795 8.0728C10.4348 7.96762 10.6331 7.96762 10.7884 8.0728L17.6753 13.3219V7.05914C17.713 6.20035 17.0911 5.47162 16.2864 5.43143C16.2744 5.43081 16.2625 5.43039 16.2505 5.43011H4.85138C4.04591 5.44917 3.4074 6.16134 3.42525 7.0209C3.42551 7.03365 3.4259 7.0464 3.42649 7.05914V13.3219Z" fill="#011C40"/>
<path d="M12.2472 0H8.85464V4.34413H12.2472V0Z" fill="#011C40"/>
<path d="M18.8966 24.5081L21 17.0869L18.0485 14.8786L17.8449 14.7701L10.8901 9.59332V24.8701H10.5169L9.87229 24.8339V9.59332L0 17.0869L2.17127 24.4719L3.42525 25.9922C3.42525 25.9922 4.48187 25.9922 5.56747 25.9922C5.56747 25.9922 9.52521 25.9975 10.517 25.9922C11.5265 26.0097 13.3195 25.9922 13.3195 25.9922H17.7432L18.8966 24.5081Z" fill="#011C40"/>
</svg>
